<?xml version="1.0" encoding="utf-8"?>
<!-- Generator: Adobe Illustrator 25.4.1, SVG Export Plug-In . SVG Version: 6.00 Build 0)  -->
<svg version="1.1" id="layer" xmlns="http://www.w3.org/2000/svg" xmlns:xlink="http://www.w3.org/1999/xlink" x="0px" y="0px"
	 viewBox="0 0 652 308" style="enable-background:new 0 0 652 308;" xml:space="preserve">
<style type="text/css">
	.st0{fill:#FFFFFF;}
	.st1{fill:#FFF000;}
</style>
<g>
	<path class="st0" d="M274.3,74.8h36.6c6.1,0,10.5,1.7,13.3,5c2.7,3.4,3.7,7.5,2.9,12.5c-0.7,4.2-2.4,7.7-5.2,10.7
		c-1.9,2-4.4,3.6-7.6,4.7c4.4,1.2,7.4,3.3,9.1,6.3s2.2,6.7,1.4,11.2c-0.6,3.7-1.9,6.9-3.9,9.8s-4.4,5.2-7.4,6.9
		c-1.8,1.1-4.4,1.8-7.8,2.3c-4.5,0.6-7.5,1-8.9,1H263L274.3,74.8 M285.3,130h10c3.4,0,5.8-0.7,7.4-2s2.6-3.1,2.9-5.3
		c0.3-2.1-0.1-3.7-1.3-5c-1.2-1.3-3.5-1.9-6.9-1.9h-9.9L285.3,130z M289.7,102.4h8.5c3.1,0,5.3-0.6,6.7-1.8c1.4-1.2,2.3-2.9,2.6-5.1
		c0.3-2.1,0-3.7-1-4.8c-1-1.2-3-1.7-6-1.7h-8.6L289.7,102.4z"/>
	<path class="st0" d="M332.2,145.2l11.2-70.4H376c6.1,0,10.6,0.6,13.6,1.7c3,1.2,5.3,3.3,6.7,6.4c1.5,3.1,1.8,6.9,1.1,11.4
		c-0.6,3.9-1.9,7.3-3.9,10.1c-1.9,2.8-4.4,5.1-7.3,6.9c-1.8,1.1-4.3,2.1-7.3,2.8c2.2,0.9,3.8,1.7,4.7,2.6c0.6,0.6,1.5,1.8,2.5,3.7
		s1.8,3.3,2.1,4.4l6.2,20.4h-22.1l-7.1-21.5c-0.9-2.8-1.8-4.6-2.7-5.4c-1.2-1.1-2.8-1.6-4.5-1.6h-1.7l-4.5,28.6h-19.6 M358.5,103.3
		h8.3c0.9,0,2.7-0.3,5.3-1c1.3-0.3,2.5-1,3.5-2.2s1.6-2.6,1.9-4.1c0.4-2.3,0-4-1.1-5.2s-3.4-1.8-7-1.8h-8.6L358.5,103.3z"/>
	<polygon class="st0" points="411.9,74.8 464.3,74.8 461.9,89.8 429.1,89.8 427.4,101.1 457.8,101.1 455.5,115.4 425.1,115.4 
		422.9,129.2 456.7,129.2 454.1,145.2 400.7,145.2 	"/>
	<path class="st0" d="M505.4,133.6h-22.2l-4.9,11.6h-20l34.9-70.4h21.5l12.6,70.4h-20.5L505.4,133.6z M503.7,118.3L500.8,93
		l-10.9,25.3H503.7z"/>
	<polygon class="st0" points="544.8,74.8 564.4,74.8 560.1,101.4 584.9,74.8 610.9,74.8 583.6,101.3 600.7,145.2 576.6,145.2 
		567.9,116.3 555.9,128 553.2,145.2 533.6,145.2 	"/>
	<polygon class="st0" points="595,103.1 620.6,103.1 618.2,118.3 592.6,118.3 	"/>
	<polygon class="st0" points="261.5,154.6 310.2,154.6 307.6,169.9 278.6,169.9 276.5,182.2 301.2,182.2 298.7,196.5 274.1,196.5 
		269.2,225.3 249.4,225.3 	"/>
	<path class="st0" d="M309.1,225.3l12.1-70.6h32.9c6.1,0,10.7,0.6,13.7,1.7c3,1.2,5.3,3.3,6.7,6.5c1.4,3.1,1.8,7,1,11.5
		c-0.7,3.9-2,7.3-4,10.2c-2,2.9-4.5,5.2-7.4,6.9c-1.9,1.1-4.3,2.1-7.4,2.8c2.2,0.9,3.8,1.7,4.7,2.6c0.6,0.6,1.5,1.8,2.5,3.7
		c1.1,1.9,1.7,3.4,2,4.4l6.2,20.4h-22.3l-7-21.5c-0.9-2.8-1.8-4.6-2.7-5.4c-1.3-1.1-2.8-1.6-4.6-1.6h-1.8l-4.9,28.6h-19.7
		 M336,183.4h8.4c0.9,0,2.7-0.3,5.4-1c1.4-0.3,2.6-1,3.6-2.2s1.7-2.6,2-4.1c0.4-2.3,0-4.1-1.1-5.3c-1.1-1.2-3.5-1.8-7.1-1.8h-8.8
		L336,183.4z"/>
	<polygon class="st0" points="390.2,154.6 443,154.6 440.4,169.7 407.4,169.7 405.4,180.8 436.2,180.8 433.7,195.3 403,195.3 
		400.6,209.2 434.7,209.2 431.9,225.3 378.1,225.3 	"/>
	<polygon class="st0" points="454.6,154.6 507.4,154.6 504.8,169.7 471.8,169.7 469.9,180.8 500.6,180.8 498.1,195.3 467.4,195.3 
		465,209.2 499.1,209.2 496.3,225.3 442.5,225.3 	"/>
	<path class="st0" d="M528.8,159.5c0,1.3-0.3,2.4-0.9,3.5c-0.6,1.1-1.4,1.9-2.4,2.6c-1,0.6-2.1,0.9-3.3,0.9s-2.3-0.3-3.3-0.9
		s-1.8-1.5-2.4-2.6c-0.6-1.1-0.9-2.3-0.9-3.5s0.3-2.4,0.9-3.5c0.6-1.1,1.4-1.9,2.4-2.6c1-0.6,2.1-0.9,3.3-0.9s2.3,0.3,3.3,0.9
		s1.8,1.5,2.4,2.6S528.8,158.2,528.8,159.5 M527.5,159.5c0-1.6-0.5-2.9-1.5-4s-2.3-1.7-3.7-1.7c-1.5,0-2.7,0.6-3.7,1.7
		s-1.5,2.4-1.5,4s0.5,2.9,1.5,4s2.3,1.7,3.7,1.7c1.5,0,2.7-0.6,3.7-1.7S527.5,161,527.5,159.5 M519.2,155.7h3.1
		c0.9,0,1.5,0.2,1.9,0.6l0.6,1.5l-0.4,1.3l-1.4,0.8l0.6,0.3l0.6,0.8c0,0,0.4,0.7,1.1,2.2h-2.1c-0.7-1.4-1.1-2.3-1.4-2.6l-0.7-0.4
		h-0.2v3h-1.7L519.2,155.7L519.2,155.7z M520.9,158.9h0.8l1.1-0.3l0.3-0.7l-0.3-0.7l-1-0.3H521L520.9,158.9L520.9,158.9z"/>
	<path class="st1" d="M144.9,219.3h83.9v0.5h-83.9V219.3z M229.8,213.6h-75.7v-0.5h75.7V213.6z M161.1,208.5H231v0.5h-69.9V208.5z
		 M231.6,203.7h-65.3v-0.5h65.3V203.7z M169.4,199.3h62.7v0.5h-62.7V199.3z M233.3,195.2h-60.7v-0.5h60.7V195.2z M176,189.3h58.1
		v0.5H176V189.3z M234.8,185.1h-57.3v-0.5h57.3V185.1z M180.5,179h54.6v0.5h-54.6V179z M236.6,173.3h-56v-0.5h56V173.3z
		 M182.9,167.4h54.5v0.5h-54.5V167.4z M239,162.8h-56.8v-0.5H239V162.8z M184.5,156.4h55.1v0.5h-55.1V156.4z"/>
	<path class="st1" d="M181.5,155.2c0,2.5-0.1,4.9-0.4,7.3c-0.2,1.7-0.4,3.4-0.7,5.1c-0.3,1.8-0.7,3.6-1.2,5.4
		c-0.6,2.3-1.3,4.5-2.1,6.6c-0.6,1.6-1.2,3.1-1.8,4.6c-0.8,1.8-1.7,3.6-2.6,5.3c-1,1.8-2,3.5-3.1,5.2s-2.3,3.3-3.5,4.8
		c-1,1.2-2,2.4-3,3.6c-1.6,1.8-3.4,3.6-5.2,5.2c-2,1.8-4,3.4-6.2,5c-3.1,2.3-6.4,4.3-9.9,6c-5,2.5-10.4,4.5-16,5.8
		c-5.2,1.2-10.5,1.8-16.1,1.8c-5.9,0-11.6-0.7-17.1-2.1c-5.1-1.2-9.9-3-14.5-5.3c-3.7-1.8-7.2-3.9-10.5-6.3c-2-1.4-3.9-2.9-5.7-4.6
		c-1.8-1.6-3.5-3.3-5.1-5.1c-1.2-1.3-2.4-2.7-3.5-4.2s-2.2-3-3.3-4.5c-1.2-1.8-2.3-3.6-3.3-5.4c-0.9-1.6-1.7-3.3-2.5-5.1
		c-0.8-1.7-1.5-3.5-2.1-5.3c-0.7-1.9-1.3-3.9-1.8-5.9c-0.5-2.1-1-4.1-1.3-6.2c-0.3-1.6-0.5-3.3-0.6-4.9c-0.2-2.3-0.3-4.6-0.3-6.9"/>
	<polyline class="st1" points="227.8,225.3 131.2,225.3 131.2,224.8 227.8,224.8 	"/>
</g>
<g>
	<path class="st0" d="M126.3,225.3H91.7v-0.5h34.6C126.3,224.8,126.3,225.3,126.3,225.3z M77.6,219.3h65.5v0.5H77.6V219.3z
		 M151.7,213.6h-85v-0.5h85V213.6z M61.9,208.5h95.4v0.5H61.9V208.5z M162.3,203.7H56.7v-0.5h105.6V203.7z M53.2,199.3h113.9v0.5
		H53.2V199.3z M168.9,195.2h-119v-0.5h119V195.2z M46.6,189.3h125.8v0.5H46.6V189.3z M174.8,185.1H44.1v-0.5h130.7L174.8,185.1
		L174.8,185.1z M42,179h135.6v0.5H42V179z M179.2,173.3h-139v-0.5h139V173.3z M39,167.4h141.4v0.5H39V167.4z M181.1,162.8H38.3v-0.5
		H181v0.5H181.1z M37.7,156.4h143.6v0.5H37.7V156.4z"/>
	<path class="st1" d="M115.2,83.8H31.3v-0.5h83.9V83.8z M30.3,89.5H106V90H30.3V89.5z M99,94.6H29.2v-0.5H99V94.6z M28.5,99.5h65.3
		v0.5H28.5V99.5z M90.7,103.9H28v-0.5h62.7V103.9z M26.8,108h60.7v0.5H26.8V108z M84.1,113.8H26v-0.5h58.1V113.8z M25.3,118h57.3
		v0.5H25.3V118z M79.6,124.2H25v-0.5h54.6V124.2z M23.5,129.9h56v0.5h-56V129.9z M77.2,135.8H22.8v-0.5h54.5v0.5H77.2z M21.1,140.4
		h56.8v0.5H21.1V140.4z M75.6,146.8h-55v-0.5h55.1L75.6,146.8L75.6,146.8z"/>
</g>
<g>
	<path class="st1" d="M78.6,148c0-2.5,0.1-4.9,0.4-7.3c0.2-1.7,0.4-3.4,0.7-5.1c0.3-1.8,0.7-3.6,1.2-5.4c0.6-2.3,1.3-4.5,2.1-6.6
		c0.6-1.6,1.2-3.1,1.8-4.6c0.8-1.8,1.7-3.6,2.6-5.3c1-1.8,2-3.5,3.1-5.2s2.3-3.3,3.5-4.8c1-1.2,2-2.4,3-3.6c1.6-1.8,3.4-3.6,5.2-5.2
		c2-1.8,4-3.4,6.2-5c3.1-2.3,6.4-4.3,9.9-6c5-2.5,10.4-4.5,16-5.8c5.2-1.2,10.5-1.8,16.1-1.8c5.9,0,11.6,0.7,17.1,2.1
		c5.1,1.2,9.9,3,14.5,5.3c3.7,1.8,7.2,3.9,10.5,6.3c2,1.4,3.9,2.9,5.7,4.6c1.8,1.6,3.5,3.3,5.1,5.1c1.2,1.3,2.4,2.7,3.5,4.2
		s2.2,3,3.3,4.5c1.2,1.8,2.3,3.6,3.3,5.4c0.9,1.6,1.7,3.3,2.5,5.1c0.8,1.7,1.5,3.5,2.1,5.3c0.7,1.9,1.3,3.9,1.8,5.9
		c0.5,2.1,1,4.1,1.3,6.2c0.3,1.6,0.5,3.3,0.6,4.9c0.2,2.3,0.3,4.6,0.3,6.9"/>
	<polyline class="st1" points="32.3,77.8 128.9,77.8 128.9,78.3 32.3,78.3 	"/>
	<path class="st0" d="M133.8,77.8h34.6v0.5h-34.6L133.8,77.8L133.8,77.8z M182.5,83.8H117v-0.5h65.5V83.8z M108.4,89.5h85V90h-85
		C108.4,90,108.4,89.5,108.4,89.5z M198.2,94.6h-95.4v-0.5h95.4V94.6z M97.8,99.5h105.6v0.5H97.8V99.5z M206.9,103.9H93v-0.5h113.9
		V103.9z M91.2,108h119v0.5h-119V108z M213.5,113.8H87.7v-0.5h125.8V113.8z M85.3,118H216v0.5H85.3V118z M218.1,124.2H82.5v-0.5
		h135.6V124.2z M80.9,129.9h139v0.5h-139C80.9,130.4,80.9,129.9,80.9,129.9z M221.1,135.8H79.7v-0.5h141.4L221.1,135.8L221.1,135.8z
		 M79,140.4h142.7v0.5H79V140.4z M222.4,146.8H78.7v-0.5h143.6L222.4,146.8L222.4,146.8z"/>
</g>
</svg>
